<svg width="50" height="50" viewBox="0 0 50 50" fill="none" xmlns="http://www.w3.org/2000/svg">
<path d="M25.1005 0.000148924C11.3819 0.000148924 0.201005 11.1251 0.201005 24.7751C0.201005 29.1501 1.35678 33.4001 3.51759 37.15L0 50L13.191 46.55C16.8342 48.525 20.9296 49.575 25.1005 49.575C38.8191 49.575 50 38.45 50 24.8001C50 18.1751 47.4121 11.9501 42.7136 7.27513C40.41 4.95995 37.6663 3.12431 34.6423 1.87527C31.6183 0.626233 28.3747 -0.0112003 25.1005 0.000148924V0.000148924ZM25.1256 4.17514C30.6533 4.17514 35.8291 6.32513 39.7487 10.2251C41.6724 12.1385 43.1975 14.4109 44.2366 16.912C45.2757 19.4131 45.8083 22.0937 45.804 24.8001C45.804 36.15 36.5075 45.375 25.1005 45.375C21.3819 45.375 17.7387 44.4 14.5729 42.5L13.8191 42.075L5.9799 44.125L8.06533 36.525L7.56281 35.725C5.48729 32.4467 4.38948 28.6496 4.39698 24.7751C4.42211 13.4251 13.6935 4.17514 25.1256 4.17514V4.17514ZM16.2814 13.3251C15.8794 13.3251 15.201 13.4751 14.6231 14.1001C14.0703 14.7251 12.4372 16.2501 12.4372 19.2751C12.4372 22.3251 14.6734 25.2501 14.9497 25.6751C15.3015 26.1001 19.3719 32.3501 25.6281 35C27.1105 35.675 28.2663 36.05 29.1708 36.325C30.6533 36.8 32.01 36.725 33.0904 36.575C34.2965 36.4 36.7588 35.075 37.2864 33.625C37.8141 32.1751 37.8141 30.9501 37.6633 30.6751C37.4874 30.4251 37.0854 30.2751 36.4573 30.0001C35.8291 29.6501 32.7638 28.1501 32.2111 27.9501C31.6332 27.7501 31.2814 27.6501 30.804 28.2501C30.402 28.8751 29.196 30.2751 28.8442 30.6751C28.4673 31.1001 28.1156 31.1501 27.5126 30.8501C26.8593 30.5251 24.8492 29.8751 22.4874 27.7751C20.6281 26.1251 19.397 24.1001 19.0201 23.4751C18.7186 22.8751 18.995 22.5001 19.2965 22.2251C19.5729 21.9501 19.9749 21.5001 20.2261 21.1251C20.5528 20.7751 20.6533 20.5001 20.8543 20.1001C21.0553 19.6751 20.9548 19.3251 20.804 19.0251C20.6533 18.7501 19.397 15.6501 18.8693 14.4251C18.3668 13.2251 17.8643 13.3751 17.4623 13.3501C17.1106 13.3501 16.7085 13.3251 16.2814 13.3251V13.3251Z" fill="white"/>
</svg>
