<svg width="35" height="40" viewBox="0 0 35 40" fill="none" xmlns="http://www.w3.org/2000/svg">
<path d="M1.94444 0C1.42875 0 0.934169 0.234126 0.569514 0.650874C0.20486 1.06762 0 1.63285 0 2.22222C0 12.2415 3.48263 21.8504 9.68175 28.9351C15.8809 36.0199 24.2887 40 33.0556 40C33.5713 40 34.0658 39.7659 34.4305 39.3491C34.7951 38.9324 35 38.3671 35 37.7778V30C35 29.4106 34.7951 28.8454 34.4305 28.4287C34.0658 28.0119 33.5713 27.7778 33.0556 27.7778C30.625 27.7778 28.2917 27.3333 26.1139 26.5111C25.772 26.3867 25.407 26.3705 25.0577 26.4645C24.7084 26.5584 24.388 26.7588 24.1306 27.0444L19.8528 31.9333C14.3329 28.7249 9.84624 23.5974 7.03889 17.2889L11.3167 12.3778C11.5742 12.0985 11.7567 11.7412 11.8428 11.3476C11.9289 10.954 11.915 10.5405 11.8028 10.1556C11.0652 7.59568 10.691 4.91733 10.6944 2.22222C10.6944 1.63285 10.4896 1.06762 10.1249 0.650874C9.76028 0.234126 9.2657 0 8.75 0H1.94444ZM31.1111 17.7778V14.4444H24.3056L35 2.22222L33.0556 0L22.3611 12.2222V4.44444H19.4444V17.7778H31.1111Z" fill="white"/>
</svg>
